<svg width="24" height="24" viewBox="0 0 24 24" fill="none" xmlns="http://www.w3.org/2000/svg">
<path fill-rule="evenodd" clip-rule="evenodd" d="M10.4902 14.8618C10.8317 14.4044 11.3796 14.103 11.9988 14.103C12.6179 14.103 13.1659 14.4044 13.5073 14.8618L13.5077 14.8623C13.7399 15.174 13.8809 15.5631 13.8809 15.9851C13.8809 17.0252 13.0389 17.8672 11.9988 17.8672C10.9587 17.8672 10.1167 17.0252 10.1167 15.9851C10.1167 15.5631 10.2577 15.174 10.4899 14.8623L10.8909 15.1609L10.4902 14.8618ZM11.2917 15.4598C11.1817 15.6076 11.1167 15.7891 11.1167 15.9851C11.1167 16.4729 11.511 16.8672 11.9988 16.8672C12.4866 16.8672 12.8809 16.4729 12.8809 15.9851C12.8809 15.789 12.8158 15.6076 12.7058 15.4597C12.5432 15.2421 12.2861 15.103 11.9988 15.103C11.7114 15.103 11.4543 15.2421 11.2917 15.4598Z" fill="white"/>
<path fill-rule="evenodd" clip-rule="evenodd" d="M8.42404 13.3178C9.23694 12.2268 10.5367 11.5189 12.0028 11.5189C13.469 11.5189 14.7704 12.2285 15.5817 13.3179C15.7466 13.5394 15.7008 13.8526 15.4793 14.0176C15.2578 14.1825 14.9446 14.1367 14.7796 13.9152C14.1486 13.0678 13.1392 12.5189 12.0028 12.5189C10.8664 12.5189 9.8585 13.0663 9.22592 13.9153C9.06093 14.1367 8.74767 14.1825 8.52624 14.0175C8.30481 13.8525 8.25905 13.5392 8.42404 13.3178Z" fill="white"/>
<path fill-rule="evenodd" clip-rule="evenodd" d="M6.22113 11.677C7.53342 9.91532 9.63372 8.77332 11.9998 8.77332C14.366 8.77332 16.4663 9.91532 17.7786 11.677C17.9435 11.8984 17.8977 12.2117 17.6763 12.3766C17.4548 12.5416 17.1416 12.4958 16.9766 12.2744C15.8449 10.7551 14.0367 9.77332 11.9998 9.77332C9.96298 9.77332 8.15478 10.7551 7.02308 12.2744C6.85811 12.4958 6.54486 12.5416 6.3234 12.3766C6.10195 12.2117 6.05616 11.8984 6.22113 11.677Z" fill="white"/>
<path fill-rule="evenodd" clip-rule="evenodd" d="M4.09907 10.1031C5.89312 7.69492 8.76366 6.13281 12 6.13281C15.2364 6.13281 18.1069 7.69492 19.901 10.1031C20.066 10.3246 20.0202 10.6378 19.7987 10.8028C19.5773 10.9678 19.264 10.922 19.0991 10.7005C17.4855 8.53457 14.9069 7.13281 12 7.13281C9.09312 7.13281 6.51459 8.53457 4.901 10.7005C4.73602 10.922 4.42277 10.9678 4.20132 10.8028C3.97987 10.6378 3.93409 10.3246 4.09907 10.1031Z" fill="white"/>
</svg>
