<svg width="24" height="24" viewBox="0 0 24 24" fill="none" xmlns="http://www.w3.org/2000/svg">
<path fill-rule="evenodd" clip-rule="evenodd" d="M4.5 16.5C4.5 15.9477 4.94772 15.5 5.5 15.5H18.5C19.0523 15.5 19.5 15.9477 19.5 16.5V17C19.5 17.5523 19.0523 18 18.5 18H5.5C4.94771 18 4.5 17.5523 4.5 17V16.5ZM18.5 16.5H5.5V17H18.5V16.5Z" fill="white"/>
<path fill-rule="evenodd" clip-rule="evenodd" d="M7.83657 6.63033C8.04074 6.81627 8.05552 7.1325 7.86958 7.33667C7.19321 8.07935 7.19321 9.21478 7.86958 9.95746L7.49991 10.2941L7.87033 9.95828L8.1911 10.3121C9.28996 11.524 9.10867 13.4184 7.79991 14.4C7.579 14.5657 7.2656 14.5209 7.09991 14.3C6.93422 14.0791 6.979 13.7657 7.19991 13.6C8.03751 12.9718 8.15353 11.7594 7.45027 10.9838L7.13024 10.6308C7.13011 10.6306 7.12999 10.6305 7.12987 10.6304C6.10633 9.50607 6.10645 7.7875 7.13024 6.66334C7.31617 6.45917 7.63241 6.4444 7.83657 6.63033Z" fill="white"/>
<path fill-rule="evenodd" clip-rule="evenodd" d="M11.8366 6.63033C12.0407 6.81627 12.0555 7.1325 11.8696 7.33667C11.1932 8.07935 11.1932 9.21478 11.8696 9.95746L11.4999 10.2941L11.8703 9.95828L12.1911 10.3121C13.29 11.524 13.1087 13.4184 11.7999 14.4C11.579 14.5657 11.2656 14.5209 11.0999 14.3C10.9342 14.0791 10.979 13.7657 11.1999 13.6C12.0375 12.9718 12.1535 11.7594 11.4503 10.9838L11.1302 10.6308C11.1301 10.6306 11.13 10.6305 11.1299 10.6304C10.1063 9.50607 10.1065 7.7875 11.1302 6.66334C11.3162 6.45917 11.6324 6.4444 11.8366 6.63033Z" fill="white"/>
<path fill-rule="evenodd" clip-rule="evenodd" d="M15.8366 6.63033C16.0407 6.81627 16.0555 7.1325 15.8696 7.33667C15.1932 8.07935 15.1932 9.21478 15.8696 9.95746L15.4999 10.2941L15.8703 9.95828L16.1911 10.3121C17.29 11.524 17.1087 13.4184 15.7999 14.4C15.579 14.5657 15.2656 14.5209 15.0999 14.3C14.9342 14.0791 14.979 13.7657 15.1999 13.6C16.0375 12.9718 16.1535 11.7594 15.4503 10.9838L15.1302 10.6308C15.1301 10.6306 15.13 10.6305 15.1299 10.6304C14.1063 9.50607 14.1065 7.7875 15.1302 6.66334C15.3162 6.45917 15.6324 6.4444 15.8366 6.63033Z" fill="white"/>
</svg>
