<svg width="24" height="24" viewBox="0 0 24 24" fill="none" xmlns="http://www.w3.org/2000/svg">
<path fill-rule="evenodd" clip-rule="evenodd" d="M7.7393 9.0362C7.58427 7.40807 8.86457 6.00004 10.5001 6H12.0001V7H10.5001C10.5001 7 10.5001 7 10.5001 7C9.45432 7.00003 8.63567 7.90036 8.73479 8.94141L9.49986 16.9762V19.0001H8.49986V17.0237L7.7393 9.0362Z" fill="white"/>
<path fill-rule="evenodd" clip-rule="evenodd" d="M11.5 5H15V7.20802C15.883 7.5938 16.5 8.47484 16.5 9.5V17.5C16.5 18.6046 15.6046 19.5 14.5 19.5H12C10.8954 19.5 10 18.6046 10 17.5V9.5C10 8.47484 10.617 7.5938 11.5 7.20802V5ZM12.5 8C11.6716 8 11 8.67157 11 9.5V17.5C11 18.0523 11.4477 18.5 12 18.5H14.5C15.0523 18.5 15.5 18.0523 15.5 17.5V9.5C15.5 8.67157 14.8284 8 14 8V6H12.5V8Z" fill="white"/>
<path fill-rule="evenodd" clip-rule="evenodd" d="M16 7H14V6H16V7Z" fill="white"/>
<path fill-rule="evenodd" clip-rule="evenodd" d="M16 11.5H11V10.5H16V11.5Z" fill="white"/>
<path fill-rule="evenodd" clip-rule="evenodd" d="M16 15.5H11V14.5H16V15.5Z" fill="white"/>
<path fill-rule="evenodd" clip-rule="evenodd" d="M10.5 17.5H8.5V16.5H10.5V17.5Z" fill="white"/>
</svg>
