<svg width="24" height="24" viewBox="0 0 24 24" fill="none" xmlns="http://www.w3.org/2000/svg">
<path fill-rule="evenodd" clip-rule="evenodd" d="M12.0002 5.39844C12.2764 5.39844 12.5002 5.6223 12.5002 5.89844V10.4746C12.5002 10.7508 12.2764 10.9746 12.0002 10.9746C11.7241 10.9746 11.5002 10.7508 11.5002 10.4746V5.89844C11.5002 5.6223 11.7241 5.39844 12.0002 5.39844Z" fill="white"/>
<path fill-rule="evenodd" clip-rule="evenodd" d="M9.12459 6.13237C9.28663 5.90877 9.59925 5.85887 9.82285 6.02091L12.2505 7.78017C12.4741 7.94221 12.524 8.25483 12.362 8.47843C12.1999 8.70203 11.8873 8.75194 11.6637 8.5899L9.23605 6.83064C9.01245 6.6686 8.96255 6.35598 9.12459 6.13237Z" fill="white"/>
<path fill-rule="evenodd" clip-rule="evenodd" d="M14.8796 6.13237C14.7175 5.90877 14.4049 5.85887 14.1813 6.02091L11.7537 7.78017C11.5301 7.94221 11.4802 8.25483 11.6422 8.47843C11.8042 8.70203 12.1169 8.75194 12.3405 8.5899L14.7681 6.83064C14.9917 6.6686 15.0416 6.35598 14.8796 6.13237Z" fill="white"/>
<path fill-rule="evenodd" clip-rule="evenodd" d="M12.0039 18.6328C11.7278 18.6328 11.5039 18.409 11.5039 18.1328V13.5566C11.5039 13.2805 11.7278 13.0566 12.0039 13.0566C12.28 13.0566 12.5039 13.2805 12.5039 13.5566V18.1328C12.5039 18.409 12.28 18.6328 12.0039 18.6328Z" fill="white"/>
<path fill-rule="evenodd" clip-rule="evenodd" d="M14.8796 17.8989C14.7175 18.1225 14.4049 18.1724 14.1813 18.0103L11.7537 16.2511C11.5301 16.089 11.4802 15.7764 11.6422 15.5528C11.8042 15.3292 12.1169 15.2793 12.3405 15.4413L14.7681 17.2006C14.9917 17.3626 15.0416 17.6753 14.8796 17.8989Z" fill="white"/>
<path fill-rule="evenodd" clip-rule="evenodd" d="M9.12459 17.8989C9.28663 18.1225 9.59925 18.1724 9.82285 18.0103L12.2505 16.2511C12.4741 16.089 12.524 15.7764 12.362 15.5528C12.1999 15.3292 11.8873 15.2793 11.6637 15.4413L9.23605 17.2006C9.01245 17.3626 8.96255 17.6753 9.12459 17.8989Z" fill="white"/>
<path fill-rule="evenodd" clip-rule="evenodd" d="M17.731 8.70608C17.869 8.94523 17.7871 9.25103 17.5479 9.3891L13.5849 11.6772C13.3457 11.8153 13.0399 11.7333 12.9019 11.4942C12.7638 11.255 12.8457 10.9492 13.0849 10.8112L17.0479 8.52307C17.2871 8.385 17.5929 8.46694 17.731 8.70608Z" fill="white"/>
<path fill-rule="evenodd" clip-rule="evenodd" d="M15.6576 6.58278C15.9322 6.61131 16.1317 6.8571 16.1032 7.13176L15.7935 10.1138C15.7649 10.3885 15.5192 10.588 15.2445 10.5595C14.9698 10.5309 14.7703 10.2851 14.7988 10.0105L15.1086 7.02845C15.1371 6.75378 15.3829 6.55425 15.6576 6.58278Z" fill="white"/>
<path fill-rule="evenodd" clip-rule="evenodd" d="M18.5349 11.5667C18.6475 11.3146 18.5345 11.0189 18.2823 10.9063L15.5449 9.68353C15.2928 9.5709 14.9971 9.684 14.8845 9.93613C14.7719 10.1883 14.885 10.484 15.1371 10.5966L17.8745 11.8193C18.1266 11.932 18.4223 11.8189 18.5349 11.5667Z" fill="white"/>
<path fill-rule="evenodd" clip-rule="evenodd" d="M6.27319 15.3252C6.13512 15.086 6.21706 14.7802 6.45621 14.6422L10.4193 12.3541C10.6584 12.216 10.9642 12.2979 11.1023 12.5371C11.2404 12.7762 11.1584 13.082 10.9193 13.2201L6.95621 15.5082C6.71706 15.6462 6.41126 15.5643 6.27319 15.3252Z" fill="white"/>
<path fill-rule="evenodd" clip-rule="evenodd" d="M8.3466 17.4485C8.07193 17.4199 7.8724 17.1742 7.90093 16.8995L8.21068 13.9175C8.23921 13.6428 8.48499 13.4433 8.75966 13.4718C9.03432 13.5003 9.23385 13.7461 9.20533 14.0208L8.89558 17.0028C8.86705 17.2775 8.62126 17.477 8.3466 17.4485Z" fill="white"/>
<path fill-rule="evenodd" clip-rule="evenodd" d="M5.46923 12.4645C5.35661 12.7166 5.4697 13.0123 5.72183 13.125L8.45921 14.3477C8.71134 14.4603 9.00704 14.3473 9.11966 14.0951C9.23229 13.843 9.1192 13.5473 8.86706 13.4347L6.12968 12.2119C5.87755 12.0993 5.58186 12.2124 5.46923 12.4645Z" fill="white"/>
<path fill-rule="evenodd" clip-rule="evenodd" d="M6.26147 8.70407C6.39955 8.46493 6.70534 8.38299 6.94449 8.52106L10.9076 10.8091C11.1467 10.9472 11.2287 11.253 11.0906 11.4922C10.9525 11.7313 10.6467 11.8132 10.4076 11.6752L6.44449 9.38708C6.20534 9.24901 6.1234 8.94322 6.26147 8.70407Z" fill="white"/>
<path fill-rule="evenodd" clip-rule="evenodd" d="M5.45922 11.5614C5.3466 11.3092 5.45969 11.0135 5.71182 10.9009L8.4492 9.67816C8.70133 9.56553 8.99703 9.67862 9.10965 9.93076C9.22228 10.1829 9.10919 10.4786 8.85705 10.5912L6.11967 11.814C5.86754 11.9266 5.57185 11.8135 5.45922 11.5614Z" fill="white"/>
<path fill-rule="evenodd" clip-rule="evenodd" d="M8.33683 6.57735C8.06217 6.60588 7.86264 6.85167 7.89117 7.12633L8.20091 10.1084C8.22944 10.383 8.47523 10.5826 8.74989 10.554C9.02456 10.5255 9.22409 10.2797 9.19556 10.005L8.88581 7.02302C8.85728 6.74835 8.6115 6.54882 8.33683 6.57735Z" fill="white"/>
<path fill-rule="evenodd" clip-rule="evenodd" d="M11.9995 12.9998C12.5518 12.9998 12.9995 12.552 12.9995 11.9998C12.9995 11.4475 12.5518 10.9998 11.9995 10.9998C11.4472 10.9998 10.9995 11.4475 10.9995 11.9998C10.9995 12.552 11.4472 12.9998 11.9995 12.9998ZM11.9995 13.9998C13.1041 13.9998 13.9995 13.1043 13.9995 11.9998C13.9995 10.8952 13.1041 9.99976 11.9995 9.99976C10.8949 9.99976 9.99951 10.8952 9.99951 11.9998C9.99951 13.1043 10.8949 13.9998 11.9995 13.9998Z" fill="white"/>
<path fill-rule="evenodd" clip-rule="evenodd" d="M17.7419 15.3308C17.6039 15.57 17.2981 15.6519 17.0589 15.5139L13.0958 13.2258C12.8567 13.0877 12.7748 12.7819 12.9128 12.5428C13.0509 12.3036 13.3567 12.2217 13.5958 12.3597L17.5589 14.6478C17.7981 14.7859 17.88 15.0917 17.7419 15.3308Z" fill="white"/>
<path fill-rule="evenodd" clip-rule="evenodd" d="M18.5442 12.4735C18.6568 12.7257 18.5437 13.0214 18.2916 13.134L15.5542 14.3568C15.3021 14.4694 15.0064 14.3563 14.8938 14.1042C14.7811 13.852 14.8942 13.5563 15.1464 13.4437L17.8837 12.2209C18.1359 12.1083 18.4316 12.2214 18.5442 12.4735Z" fill="white"/>
<path fill-rule="evenodd" clip-rule="evenodd" d="M15.6666 17.4576C15.9413 17.429 16.1408 17.1832 16.1123 16.9086L15.8025 13.9266C15.774 13.6519 15.5282 13.4524 15.2535 13.4809C14.9789 13.5094 14.7793 13.7552 14.8079 14.0299L15.1176 17.0119C15.1461 17.2866 15.3919 17.4861 15.6666 17.4576Z" fill="white"/>
</svg>
